<?xml version="1.0" encoding="UTF-8"?>
<svg id="Layer_1" data-name="Layer 1" xmlns="http://www.w3.org/2000/svg" viewBox="0 0 24.21 24.21">
  <defs>
    <style>
      .cls-1 {
        fill: #cca3ff;
      }

      .cls-1, .cls-2 {
        stroke: #161618;
        stroke-miterlimit: 10;
        stroke-width: .05px;
      }

      .cls-2 {
        fill: #facf10;
      }
    </style>
  </defs>
  <path class="cls-2" d="M14.52,6.06c-5.43,2.04-9.82,4.58-9.82,4.58,0,.42,1.82,7.29,1.82,7.29,.61,.48,13.78-1.85,13.78-1.85,.12-.24-5.46-10.14-5.78-10.02Zm-3.54,10.25c-2.39,0-4.3-1.86-4.3-4.2s1.9-4.2,4.3-4.2,4.3,1.86,4.3,4.2-1.9,4.2-4.3,4.2Z"/>
  <path class="cls-1" d="M21.22,13.3c.06-.36,.06-.78,.06-1.2s-.06-.78-.06-1.2l2.58-1.98c.25-.18,.31-.48,.12-.78l-2.45-4.14c-.12-.24-.49-.36-.74-.24l-3.07,1.2c-.61-.48-1.35-.9-2.09-1.2l-.43-3.18c-.06-.24-.31-.48-.61-.48h-4.91c-.31,0-.55,.24-.61,.48l-.49,3.18c-.74,.3-1.41,.72-2.09,1.2l-3.07-1.2c-.31-.12-.61,0-.74,.24L.17,8.15c-.12,.24-.06,.6,.12,.78l2.64,1.98c0,.42-.06,.78-.06,1.2s.06,.78,.06,1.2L.35,15.28c-.25,.18-.31,.48-.12,.78l2.45,4.14c.12,.24,.49,.36,.74,.24l3.07-1.2c.61,.48,1.35,.9,2.09,1.2l.49,3.18c.06,.3,.31,.48,.61,.48h4.91c.31,0,.55-.24,.61-.48l.49-3.18c.74-.3,1.41-.72,2.09-1.2l3.07,1.2c.31,.12,.61,0,.74-.24l2.45-4.14c.12-.24,.06-.6-.12-.78l-2.7-1.98Zm-9.14,3c-2.39,0-4.3-1.86-4.3-4.2s1.9-4.2,4.3-4.2,4.3,1.86,4.3,4.2-1.9,4.2-4.3,4.2Z"/>
</svg>